<svg width="197" height="35" viewBox="0 0 197 35" fill="none" xmlns="http://www.w3.org/2000/svg">
<path d="M196.056 30.4581L189.616 31.2401L188.282 29.0781C188.282 28.6794 187.975 28.6947 187.362 29.1241C187.208 29.2161 187.055 29.3694 186.902 29.5841C186.748 29.7987 186.595 30.0134 186.442 30.2281C186.35 30.3507 186.258 30.4734 186.166 30.5961C186.074 30.7187 185.982 30.8567 185.89 31.0101C184.939 31.7154 183.958 32.1754 182.946 32.3901C181.964 32.6047 181.121 32.4667 180.416 31.9761C179.894 31.9147 179.542 31.7921 179.358 31.6081C179.266 31.5467 179.143 31.4394 178.99 31.2861L176.046 31.1021L174.804 30.5041L173.654 27.6061L173.884 26.6401L172.872 22.5921L174.804 19.3721L176.368 17.9461C176.95 17.6394 177.625 17.3941 178.392 17.2101C179.158 17.0261 179.925 16.9034 180.692 16.8421C181.458 16.7501 182.194 16.7347 182.9 16.7961C183.605 16.8267 184.188 16.9187 184.648 17.0721C184.648 17.5627 184.801 17.8847 185.108 18.0381C185.414 18.1914 186.012 18.3601 186.902 18.5441C187.208 18.0227 187.362 17.3941 187.362 16.6581C187.362 15.8914 187.224 15.0941 186.948 14.2661L186.212 11.9201C185.966 11.8281 185.583 11.6747 185.062 11.4601C184.571 11.2147 184.157 11.0154 183.82 10.8621L181.842 11.1841L179.818 11.5981L179.358 10.8621L179.864 9.66607L180.186 8.93007L180.83 8.79207L182.946 8.42407L184.832 9.06807L186.902 8.74607L190.904 9.94207L192.606 12.5181L193.204 19.8321L193.066 22.1321L194.078 27.5141L194.676 27.7901H196.102L196.7 29.4001L196.056 30.4581ZM179.174 22.9601C179.02 23.7574 179.02 24.4321 179.174 24.9841C179.358 25.5361 179.649 25.9961 180.048 26.3641L180.738 27.7901C181.29 27.9741 181.811 28.1121 182.302 28.2041C182.792 28.2961 183.298 28.3114 183.82 28.2501C184.372 28.1581 184.939 27.9894 185.522 27.7441C186.135 27.4681 186.84 27.0694 187.638 26.5481L187.73 24.2021L186.902 20.1081C186.472 19.9547 186.089 19.8781 185.752 19.8781C185.445 19.8781 185.138 19.9087 184.832 19.9701C184.464 20.0621 184.034 20.1387 183.544 20.2001C183.053 20.2614 182.547 20.3381 182.026 20.4301C181.535 20.4914 181.075 20.5834 180.646 20.7061C180.247 20.7981 179.956 20.9361 179.772 21.1201L179.174 22.9601Z" fill="#FB8500"/>
<path d="M157.088 3.04201L155.984 4.97401C155.432 5.40335 155.172 5.84801 155.202 6.30801C155.233 6.76801 155.417 7.25868 155.754 7.78001C155.693 8.24001 155.647 8.60801 155.616 8.88401C155.616 9.16001 155.616 9.42068 155.616 9.66601C155.647 9.88068 155.678 10.126 155.708 10.402C155.77 10.6473 155.846 10.9693 155.938 11.368L155.478 13.254L155.386 15.462L156.03 15.83L156.95 15.646C157.165 15.4927 157.364 15.3087 157.548 15.094C157.732 14.8487 157.886 14.6187 158.008 14.404C158.162 14.1893 158.269 14.0053 158.33 13.852C158.422 13.6987 158.484 13.622 158.514 13.622C158.545 13.622 158.637 13.622 158.79 13.622C158.974 13.5913 159.174 13.5607 159.388 13.53C159.634 13.4687 159.879 13.4073 160.124 13.346C160.4 13.2847 160.63 13.208 160.814 13.116C160.906 13.116 161.259 13.162 161.872 13.254C162.516 13.3153 163.237 13.5147 164.034 13.852C164.249 13.9133 164.464 14.0053 164.678 14.128C164.893 14.22 165.123 14.3273 165.368 14.45L166.656 15.094C167.055 15.278 167.392 15.4467 167.668 15.6C167.944 15.7533 168.128 15.83 168.22 15.83L169.002 18.406C168.88 18.498 168.772 18.636 168.68 18.82C168.619 19.004 168.558 19.188 168.496 19.372C168.466 19.556 168.466 19.7247 168.496 19.878C168.527 20.0313 168.588 20.1233 168.68 20.154C168.742 20.4607 168.788 20.6753 168.818 20.798C168.849 20.9207 168.895 21.0127 168.956 21.074C169.018 21.1353 169.094 21.1967 169.186 21.258C169.309 21.3193 169.478 21.442 169.692 21.626L169.14 25.904L166.656 30.044C166.442 30.228 166.104 30.458 165.644 30.734C165.184 30.9793 164.648 31.2247 164.034 31.47C163.452 31.7153 162.823 31.93 162.148 32.114C161.474 32.2673 160.799 32.344 160.124 32.344C159.664 32.528 159.373 32.666 159.25 32.758C159.128 32.8193 159.005 32.85 158.882 32.85C158.79 32.8193 158.591 32.758 158.284 32.666C158.008 32.5433 157.487 32.4053 156.72 32.252C156.536 32.068 156.368 31.93 156.214 31.838C156.092 31.746 155.969 31.654 155.846 31.562C155.754 31.47 155.662 31.3473 155.57 31.194C155.478 31.0407 155.386 30.7953 155.294 30.458C154.988 30.1513 154.589 29.8753 154.098 29.63C153.608 29.354 153.194 29.262 152.856 29.354C152.427 29.9673 151.998 30.458 151.568 30.826C151.139 31.194 150.664 31.3627 150.142 31.332C149.805 31.148 149.437 31.0407 149.038 31.01C148.67 30.9793 148.333 30.9793 148.026 31.01C147.72 31.01 147.459 31.01 147.244 31.01C147.06 30.9793 146.968 30.8873 146.968 30.734C146.999 30.6113 147.091 30.458 147.244 30.274C147.306 30.1513 147.398 29.998 147.52 29.814C147.674 29.5993 147.827 29.354 147.98 29.078L147.888 28.296L148.716 22.684C148.594 22.3467 148.548 21.7947 148.578 21.028C148.609 20.2307 148.655 19.1573 148.716 17.808C148.808 16.4587 148.885 14.7873 148.946 12.794C149.038 10.77 149.069 8.36268 149.038 5.57201C149.069 5.11201 149.13 4.66735 149.222 4.23801C149.345 3.80868 149.452 3.41001 149.544 3.04201C149.636 2.64335 149.698 2.29068 149.728 1.98401C149.759 1.64668 149.728 1.34001 149.636 1.06401C149.606 0.788014 149.652 0.573347 149.774 0.420014C149.897 0.236012 150.127 0.174679 150.464 0.236013L155.11 0.420014L156.214 0.788012L157.088 3.04201ZM155.892 28.986C156.26 29.17 156.552 29.308 156.766 29.4C156.981 29.4614 157.165 29.492 157.318 29.492C157.502 29.492 157.671 29.4614 157.824 29.4C157.978 29.3387 158.146 29.262 158.33 29.17L159.802 28.71L161.688 26.87C162.21 26.7167 162.608 26.4713 162.884 26.134C163.191 25.766 163.36 25.2753 163.39 24.662C163.513 24.1407 163.651 23.6653 163.804 23.236C163.958 22.776 164.065 22.3313 164.126 21.902C164.188 21.4727 164.188 21.0433 164.126 20.614C164.096 20.154 163.958 19.6633 163.712 19.142L163.114 17.624L160.676 16.428C160.247 16.336 159.787 16.2747 159.296 16.244C158.806 16.2133 158.346 16.244 157.916 16.336C157.487 16.428 157.119 16.5967 156.812 16.842C156.506 17.0567 156.337 17.3787 156.306 17.808L155.432 18.728C155.279 19.9853 155.187 20.9973 155.156 21.764C155.095 22.5613 155.018 23.328 154.926 24.064C154.865 24.8 154.804 25.2753 154.742 25.49C154.62 25.9193 154.62 26.318 154.742 26.686C154.865 27.0233 154.865 27.238 154.742 27.33L155.892 28.986Z" fill="#FB8500"/>
<path d="M128.563 3.04201L127.459 4.97401C126.907 5.40335 126.646 5.84801 126.677 6.30801C126.708 6.76801 126.892 7.25868 127.229 7.78001C127.168 8.24001 127.122 8.60801 127.091 8.88401C127.091 9.16001 127.091 9.42068 127.091 9.66601C127.122 9.88068 127.152 10.126 127.183 10.402C127.244 10.6473 127.321 10.9693 127.413 11.368L126.953 13.254L126.861 15.462L127.505 15.83L128.425 15.646C128.64 15.4927 128.839 15.3087 129.023 15.094C129.207 14.8487 129.36 14.6187 129.483 14.404C129.636 14.1893 129.744 14.0053 129.805 13.852C129.897 13.6987 129.958 13.622 129.989 13.622C130.02 13.622 130.112 13.622 130.265 13.622C130.449 13.5913 130.648 13.5607 130.863 13.53C131.108 13.4687 131.354 13.4073 131.599 13.346C131.875 13.2847 132.105 13.208 132.289 13.116C132.381 13.116 132.734 13.162 133.347 13.254C133.991 13.3153 134.712 13.5147 135.509 13.852C135.724 13.9133 135.938 14.0053 136.153 14.128C136.368 14.22 136.598 14.3273 136.843 14.45L138.131 15.094C138.53 15.278 138.867 15.4467 139.143 15.6C139.419 15.7533 139.603 15.83 139.695 15.83L140.477 18.406C140.354 18.498 140.247 18.636 140.155 18.82C140.094 19.004 140.032 19.188 139.971 19.372C139.94 19.556 139.94 19.7247 139.971 19.878C140.002 20.0313 140.063 20.1233 140.155 20.154C140.216 20.4607 140.262 20.6753 140.293 20.798C140.324 20.9207 140.37 21.0127 140.431 21.074C140.492 21.1353 140.569 21.1967 140.661 21.258C140.784 21.3193 140.952 21.442 141.167 21.626L140.615 25.904L138.131 30.044C137.916 30.228 137.579 30.458 137.119 30.734C136.659 30.9793 136.122 31.2247 135.509 31.47C134.926 31.7153 134.298 31.93 133.623 32.114C132.948 32.2673 132.274 32.344 131.599 32.344C131.139 32.528 130.848 32.666 130.725 32.758C130.602 32.8193 130.48 32.85 130.357 32.85C130.265 32.8193 130.066 32.758 129.759 32.666C129.483 32.5433 128.962 32.4053 128.195 32.252C128.011 32.068 127.842 31.93 127.689 31.838C127.566 31.746 127.444 31.654 127.321 31.562C127.229 31.47 127.137 31.3473 127.045 31.194C126.953 31.0407 126.861 30.7953 126.769 30.458C126.462 30.1513 126.064 29.8753 125.573 29.63C125.082 29.354 124.668 29.262 124.331 29.354C123.902 29.9673 123.472 30.458 123.043 30.826C122.614 31.194 122.138 31.3627 121.617 31.332C121.28 31.148 120.912 31.0407 120.513 31.01C120.145 30.9793 119.808 30.9793 119.501 31.01C119.194 31.01 118.934 31.01 118.719 31.01C118.535 30.9793 118.443 30.8873 118.443 30.734C118.474 30.6113 118.566 30.458 118.719 30.274C118.78 30.1513 118.872 29.998 118.995 29.814C119.148 29.5993 119.302 29.354 119.455 29.078L119.363 28.296L120.191 22.684C120.068 22.3467 120.022 21.7947 120.053 21.028C120.084 20.2307 120.13 19.1573 120.191 17.808C120.283 16.4587 120.36 14.7873 120.421 12.794C120.513 10.77 120.544 8.36268 120.513 5.57201C120.544 5.11201 120.605 4.66735 120.697 4.23801C120.82 3.80868 120.927 3.41001 121.019 3.04201C121.111 2.64335 121.172 2.29068 121.203 1.98401C121.234 1.64668 121.203 1.34001 121.111 1.06401C121.08 0.788014 121.126 0.573347 121.249 0.420014C121.372 0.236012 121.602 0.174679 121.939 0.236013L126.585 0.420014L127.689 0.788012L128.563 3.04201ZM127.367 28.986C127.735 29.17 128.026 29.308 128.241 29.4C128.456 29.4614 128.64 29.492 128.793 29.492C128.977 29.492 129.146 29.4614 129.299 29.4C129.452 29.3387 129.621 29.262 129.805 29.17L131.277 28.71L133.163 26.87C133.684 26.7167 134.083 26.4713 134.359 26.134C134.666 25.766 134.834 25.2753 134.865 24.662C134.988 24.1407 135.126 23.6653 135.279 23.236C135.432 22.776 135.54 22.3313 135.601 21.902C135.662 21.4727 135.662 21.0433 135.601 20.614C135.57 20.154 135.432 19.6633 135.187 19.142L134.589 17.624L132.151 16.428C131.722 16.336 131.262 16.2747 130.771 16.244C130.28 16.2133 129.82 16.244 129.391 16.336C128.962 16.428 128.594 16.5967 128.287 16.842C127.98 17.0567 127.812 17.3787 127.781 17.808L126.907 18.728C126.754 19.9853 126.662 20.9973 126.631 21.764C126.57 22.5613 126.493 23.328 126.401 24.064C126.34 24.8 126.278 25.2753 126.217 25.49C126.094 25.9193 126.094 26.318 126.217 26.686C126.34 27.0233 126.34 27.238 126.217 27.33L127.367 28.986Z" fill="#FB8500"/>
<path d="M111.657 31.516L110.047 31.792C109.679 31.8534 109.295 31.8534 108.897 31.792C108.498 31.7307 108.084 31.7 107.655 31.7C107.563 31.7 107.425 31.7 107.241 31.7C107.057 31.7 106.842 31.7 106.597 31.7C106.382 31.7 106.167 31.7154 105.953 31.746C105.738 31.746 105.554 31.746 105.401 31.746L104.389 31.056C104.481 30.4427 104.45 29.998 104.297 29.722C104.174 29.446 104.082 29.1854 104.021 28.94C103.959 28.756 103.837 28.4647 103.653 28.066C103.469 27.6674 103.3 27.2074 103.147 26.686C103.147 26.594 102.993 26.318 102.687 25.858C102.38 25.398 102.135 24.984 101.951 24.616L101.399 24.846C101.245 24.846 101.077 24.892 100.893 24.984C100.709 25.076 100.249 25.122 99.5126 25.122C99.4206 24.938 99.2673 24.8154 99.0526 24.754C98.838 24.662 98.5926 24.6467 98.3166 24.708C98.0713 24.7387 97.8106 24.8307 97.5346 24.984C97.2893 25.1374 97.0746 25.3214 96.8906 25.536L95.0046 25.812C94.882 25.536 94.744 25.3214 94.5906 25.168C94.468 24.984 94.33 24.8154 94.1766 24.662C94.054 24.5087 93.9466 24.34 93.8546 24.156C93.7626 23.972 93.7166 23.7267 93.7166 23.42C94.33 23.2667 94.6826 23.0674 94.7746 22.822C94.8973 22.5767 94.9893 22.4694 95.0506 22.5C95.2346 22.592 95.4033 22.638 95.5566 22.638C95.342 22.638 95.2806 22.6074 95.3726 22.546C95.4646 22.4847 95.8786 22.3314 96.6146 22.086L99.9726 21.672L100.663 22.178C101.153 22.3007 101.521 22.3314 101.767 22.27C102.012 22.2087 102.181 22.1014 102.273 21.948C102.365 21.764 102.411 21.5647 102.411 21.35C102.441 21.1354 102.472 20.9514 102.503 20.798C102.564 20.4607 102.487 20.1847 102.273 19.97C102.089 19.7247 101.828 19.51 101.491 19.326C101.429 18.9887 101.307 18.6054 101.123 18.176C100.969 17.716 100.77 17.1794 100.525 16.566C100.31 15.9834 100.111 15.37 99.9266 14.726C99.7733 14.0514 99.6353 13.438 99.5126 12.886C99.39 12.334 99.298 11.874 99.2366 11.506C99.1753 11.138 99.1293 10.9234 99.0986 10.862C98.6693 10.586 98.3166 10.5707 98.0406 10.816C97.7646 11.0307 97.5346 11.3527 97.3506 11.782C97.1973 12.2114 97.09 12.6714 97.0286 13.162C96.998 13.622 96.998 13.944 97.0286 14.128C96.998 14.1894 96.9213 14.2967 96.7986 14.45C96.676 14.5727 96.538 14.7107 96.3846 14.864C96.2313 15.0174 96.0933 15.1707 95.9706 15.324C95.848 15.4467 95.7713 15.5387 95.7406 15.6C95.618 15.8147 95.5873 16.0447 95.6486 16.29C95.71 16.5354 95.664 16.75 95.5106 16.934C94.8973 18.038 94.1766 18.912 93.3486 19.556C93.134 19.74 92.9653 20.0007 92.8426 20.338C92.72 20.6754 92.6433 21.028 92.6126 21.396C92.582 21.764 92.6126 22.132 92.7046 22.5C92.7966 22.8374 92.9653 23.1134 93.2106 23.328C92.904 23.512 92.6586 23.7114 92.4746 23.926C92.3213 24.11 92.1833 24.3247 92.0606 24.57C91.9686 24.7847 91.8766 25.03 91.7846 25.306C91.6926 25.5514 91.5853 25.8274 91.4626 26.134C90.9413 27.514 90.6806 28.2347 90.6806 28.296L90.0366 29.63L89.4386 32.068C89.4693 32.528 89.3006 32.804 88.9326 32.896C88.5953 32.988 88.0433 33.034 87.2766 33.034C86.5406 33.218 85.8966 33.31 85.3446 33.31C84.7926 33.2794 84.6086 32.988 84.7926 32.436C85.59 30.5347 86.1726 29.124 86.5406 28.204C86.9393 27.2534 87.1386 26.5327 87.1386 26.042C87.1386 25.8887 87.2 25.766 87.3226 25.674C87.476 25.5514 87.5986 25.4594 87.6906 25.398C87.7213 25.3367 87.8286 25.0147 88.0126 24.432C88.2273 23.8494 88.4573 23.2054 88.7026 22.5C88.948 21.764 89.178 21.074 89.3926 20.43C89.638 19.7554 89.822 19.2954 89.9446 19.05C90.2206 18.4674 90.5426 17.808 90.9106 17.072C91.3093 16.336 91.7693 15.6307 92.2906 14.956C92.5666 14.588 92.7966 14.082 92.9806 13.438C93.1953 12.794 93.3946 12.0887 93.5786 11.322C93.7626 10.5554 93.962 9.77337 94.1766 8.97604C94.3913 8.1787 94.6673 7.4427 95.0046 6.76804C95.1886 6.7067 95.7253 6.03204 96.6146 4.74404C96.676 4.6827 96.722 4.62137 96.7526 4.56004C96.814 4.46804 96.8753 4.39137 96.9366 4.33004L102.825 3.96204C102.947 4.11537 103.085 4.29937 103.239 4.51404C103.392 4.7287 103.561 4.9587 103.745 5.20404C104.327 5.94004 104.68 6.5227 104.803 6.95204C104.925 7.38137 105.002 7.67271 105.033 7.82604C104.971 7.91804 105.293 8.9607 105.999 10.954C106.183 11.4447 106.336 11.9967 106.459 12.61C106.581 13.2234 106.673 13.806 106.735 14.358C106.796 14.8794 106.827 15.3394 106.827 15.738C106.827 16.106 106.811 16.3054 106.781 16.336C106.719 16.3667 107.21 16.75 108.253 17.486C108.498 17.67 108.636 17.8387 108.667 17.992C108.728 18.1454 108.728 18.2834 108.667 18.406C108.636 18.5287 108.575 18.636 108.483 18.728C108.391 18.82 108.345 18.8814 108.345 18.912L109.587 20.568C109.587 20.568 109.939 21.902 110.645 24.57C111.043 25.858 111.335 26.962 111.519 27.882C111.703 28.7714 111.795 29.4614 111.795 29.952C111.795 30.0134 111.81 30.0594 111.841 30.09C111.841 30.0594 111.871 30.136 111.933 30.32L111.657 31.516Z" fill="#FB8500"/>
<path d="M74.4167 4.28405C74.478 4.03871 74.5087 3.80871 74.5087 3.59405C74.5393 3.34871 74.57 3.10338 74.6007 2.85804C74.6007 2.64338 74.6007 2.45938 74.6007 2.30605C74.6313 2.15271 74.6467 2.01471 74.6467 1.89205L74.8767 1.38604C74.9687 1.35538 75.0913 1.34004 75.2447 1.34004C75.398 1.34004 75.582 1.32471 75.7967 1.29405C76.4407 1.26338 76.8547 1.18671 77.0387 1.06405C77.0387 1.03338 77.1153 0.972046 77.2687 0.880045C77.3607 0.788045 77.4373 0.726711 77.4987 0.696045C77.5293 0.696045 77.6367 0.711378 77.8207 0.742044C78.0047 0.772711 78.25 0.834044 78.5567 0.926045C79.078 1.04871 79.446 1.11005 79.6607 1.11005C79.9367 1.11005 80.09 1.09471 80.1207 1.06405C80.1513 1.03338 80.2433 1.03338 80.3967 1.06405L80.8107 1.84604L81.2247 4.19205L80.2587 5.80204C80.228 5.83271 80.1973 5.86338 80.1667 5.89405C80.1667 5.92471 80.136 5.95538 80.0747 5.98605C79.9213 6.07805 79.7373 6.21605 79.5227 6.40005L79.3847 6.53805L78.0047 6.67604C77.8207 6.61471 77.606 6.55338 77.3607 6.49204C77.1153 6.40005 76.824 6.29271 76.4867 6.17005C76.1493 6.04738 75.858 5.94005 75.6127 5.84804C75.3673 5.72538 75.1527 5.63338 74.9687 5.57205L74.7387 5.34205L74.4167 4.28405ZM80.1207 12.196L79.9367 13.852L80.1207 14.542L79.8447 15.278L79.9827 16.336L79.7527 17.21L79.8907 17.486L79.7067 19.556L79.5227 23.926C79.5227 24.1407 79.492 24.4167 79.4307 24.754C79.3693 25.0607 79.3233 25.398 79.2927 25.766C79.262 26.1034 79.262 26.456 79.2927 26.824C79.3233 27.1614 79.4153 27.4527 79.5687 27.698C79.538 28.158 79.492 28.6947 79.4307 29.308C79.3693 29.9214 79.262 30.6267 79.1087 31.424C78.8633 31.7614 78.6027 32.068 78.3267 32.344C78.0813 32.5894 77.606 32.7274 76.9007 32.758C76.502 32.7887 76.1033 32.8194 75.7047 32.85C75.3367 32.8807 74.984 32.9267 74.6467 32.988C74.4627 33.0187 74.2787 33.0494 74.0947 33.08C73.9107 33.1107 73.7113 33.1567 73.4967 33.218L72.3467 31.746C72.3773 31.5927 72.4233 31.1787 72.4847 30.504C72.5767 29.7987 72.6533 28.9707 72.7147 28.02C72.776 27.0694 72.8067 26.0574 72.8067 24.984C72.8373 23.9107 72.8067 22.914 72.7147 21.994L72.9907 21.12L73.4047 19.096L73.5427 17.486L73.8187 16.934L73.8647 16.52L74.1407 15.278L74.3707 12.748L78.5107 11.138L80.1207 12.196Z" fill="#FB8500"/>
<path d="M62.7132 25.858L62.8972 29.124L62.7132 30.826V31.7L61.8392 32.942L60.3212 33.31L56.3652 34.046C56.0279 34.1073 55.7519 34.0613 55.5372 33.908C55.3532 33.724 55.2612 33.2793 55.2612 32.574V32.482L55.9972 28.986L56.1352 25.858V24.11L56.6872 20.154C56.6566 20.0007 56.6259 19.7093 56.5952 19.28C56.5646 18.8507 56.5186 18.314 56.4572 17.67C56.4266 17.3327 56.4112 17.026 56.4112 16.75C56.4112 16.474 56.3959 16.2287 56.3652 16.014V15.048C56.3652 15.0787 56.4726 14.9867 56.6872 14.772C56.9019 14.5267 57.0859 14.2353 57.2392 13.898C57.3926 13.53 57.4539 13.1313 57.4232 12.702C57.3926 12.2727 57.1319 11.874 56.6412 11.506L57.4232 3.548C57.6379 3.42534 57.6532 3.05734 57.4692 2.44401L58.3892 1.52401L58.9872 1.43201C59.1099 1.46267 59.3092 1.49334 59.5852 1.52401C59.8612 1.52401 60.1526 1.53934 60.4592 1.57C60.7659 1.57 61.0572 1.58534 61.3332 1.616C61.6399 1.616 61.8699 1.63134 62.0232 1.66201C62.2992 1.72334 62.6519 1.76934 63.0812 1.8C63.5106 1.8 63.8172 1.84601 64.0012 1.93801L64.9212 2.44401V3.318C65.0132 3.50201 64.9979 3.76267 64.8752 4.10001C64.7832 4.40667 64.7526 4.77467 64.7832 5.204C64.7832 5.41867 64.7679 5.66401 64.7372 5.94001C64.7066 6.21601 64.6759 6.47667 64.6452 6.722C64.6452 6.96734 64.6299 7.18201 64.5992 7.366C64.5686 7.55001 64.5532 7.65734 64.5532 7.68801C64.5532 7.74934 64.5379 7.826 64.5072 7.91801L64.4612 8.28601C64.4612 8.40867 64.4306 8.51601 64.3692 8.60801C64.3386 8.70001 64.3079 8.73067 64.2772 8.70001C64.2466 8.70001 64.1699 8.79201 64.0472 8.97601C63.9552 9.16001 63.8479 9.39001 63.7252 9.66601C63.6332 9.91134 63.5566 10.172 63.4952 10.448C63.4339 10.724 63.4186 10.9387 63.4492 11.092C63.4799 11.2453 63.5106 11.4907 63.5412 11.828C63.5719 12.1347 63.6026 12.564 63.6332 13.116C63.6332 13.392 63.6332 13.6373 63.6332 13.852C63.6639 14.0667 63.6792 14.2507 63.6792 14.404C63.6792 14.588 63.6946 14.726 63.7252 14.818L63.4032 17.532L63.4952 18.866C63.0659 19.7247 62.8666 20.3227 62.8972 20.66C62.9586 20.9973 63.1426 21.2733 63.4492 21.488L62.7132 25.858Z" fill="#FB8500"/>
<path d="M51.0031 30.4581L44.5631 31.2401L43.2291 29.0781C43.2291 28.6794 42.9224 28.6947 42.3091 29.1241C42.1558 29.2161 42.0024 29.3694 41.8491 29.5841C41.6958 29.7987 41.5424 30.0134 41.3891 30.2281C41.2971 30.3507 41.2051 30.4734 41.1131 30.5961C41.0211 30.7187 40.9291 30.8567 40.8371 31.0101C39.8864 31.7154 38.9051 32.1754 37.8931 32.3901C36.9118 32.6047 36.0684 32.4667 35.3631 31.9761C34.8418 31.9147 34.4891 31.7921 34.3051 31.6081C34.2131 31.5467 34.0904 31.4394 33.9371 31.2861L30.9931 31.1021L29.7511 30.5041L28.6011 27.6061L28.8311 26.6401L27.8191 22.5921L29.7511 19.3721L31.3151 17.9461C31.8978 17.6394 32.5724 17.3941 33.3391 17.2101C34.1058 17.0261 34.8724 16.9034 35.6391 16.8421C36.4058 16.7501 37.1418 16.7347 37.8471 16.7961C38.5524 16.8267 39.1351 16.9187 39.5951 17.0721C39.5951 17.5627 39.7484 17.8847 40.0551 18.0381C40.3618 18.1914 40.9598 18.3601 41.8491 18.5441C42.1558 18.0227 42.3091 17.3941 42.3091 16.6581C42.3091 15.8914 42.1711 15.0941 41.8951 14.2661L41.1591 11.9201C40.9138 11.8281 40.5304 11.6747 40.0091 11.4601C39.5184 11.2147 39.1044 11.0154 38.7671 10.8621L36.7891 11.1841L34.7651 11.5981L34.3051 10.8621L34.8111 9.66607L35.1331 8.93007L35.7771 8.79207L37.8931 8.42407L39.7791 9.06807L41.8491 8.74607L45.8511 9.94207L47.5531 12.5181L48.1511 19.8321L48.0131 22.1321L49.0251 27.5141L49.6231 27.7901H51.0491L51.6471 29.4001L51.0031 30.4581ZM34.1211 22.9601C33.9678 23.7574 33.9678 24.4321 34.1211 24.9841C34.3051 25.5361 34.5964 25.9961 34.9951 26.3641L35.6851 27.7901C36.2371 27.9741 36.7584 28.1121 37.2491 28.2041C37.7398 28.2961 38.2458 28.3114 38.7671 28.2501C39.3191 28.1581 39.8864 27.9894 40.4691 27.7441C41.0824 27.4681 41.7878 27.0694 42.5851 26.5481L42.6771 24.2021L41.8491 20.1081C41.4198 19.9547 41.0364 19.8781 40.6991 19.8781C40.3924 19.8781 40.0858 19.9087 39.7791 19.9701C39.4111 20.0621 38.9818 20.1387 38.4911 20.2001C38.0004 20.2614 37.4944 20.3381 36.9731 20.4301C36.4824 20.4914 36.0224 20.5834 35.5931 20.7061C35.1944 20.7981 34.9031 20.9361 34.7191 21.1201L34.1211 22.9601Z" fill="#FB8500"/>
<path d="M18.5741 5.43405C18.6354 5.77139 18.7734 5.98605 18.9881 6.07805C19.2334 6.17005 19.3714 6.29272 19.4021 6.44605C19.4634 6.78339 19.5401 7.05939 19.6321 7.27405C19.7547 7.48872 19.9694 7.68805 20.2761 7.87205C20.6134 8.05605 20.8127 8.30139 20.8741 8.60805C20.9354 8.88405 21.0887 9.16005 21.3341 9.43605C21.3647 9.55872 21.3647 9.72739 21.3341 9.94205C21.3341 10.1567 21.3034 10.3714 21.2421 10.5861C21.2114 10.7701 21.1654 10.9541 21.1041 11.1381C21.0427 11.3221 20.9967 11.4294 20.9661 11.4601C20.9354 11.5521 20.9047 11.6441 20.8741 11.7361C20.8434 11.8281 20.7974 11.9354 20.7361 12.0581C20.6747 12.2114 20.5827 12.4107 20.4601 12.6561C20.3681 12.8707 20.2454 13.1161 20.0921 13.3921C19.5401 14.4654 19.0801 15.1554 18.7121 15.4621C18.6814 15.5234 18.5281 15.5541 18.2521 15.5541C18.0067 15.5541 17.7307 15.5694 17.4241 15.6001C17.1174 15.6307 16.8414 15.6921 16.5961 15.7841C16.3507 15.8761 16.2281 16.0447 16.2281 16.2901C16.0134 16.3514 15.9214 16.4587 15.9521 16.6121C16.0134 16.7347 16.1054 16.8727 16.2281 17.0261C16.3814 17.1794 16.5194 17.3327 16.6421 17.4861C16.7647 17.6087 16.7954 17.6854 16.7341 17.7161C17.2554 17.8387 17.8534 17.8847 18.5281 17.8541C19.2027 17.8234 19.7547 17.8081 20.1841 17.8081C20.3681 18.1454 20.5827 18.4061 20.8281 18.5901C21.0734 18.7434 21.4414 18.8201 21.9321 18.8201L24.6921 22.1781L24.5541 26.6861L23.0821 28.5261C22.0087 28.5261 21.0427 29.0321 20.1841 30.0441L18.9421 31.5621C18.6047 31.7154 18.1601 31.8227 17.6081 31.8841C17.0561 31.9147 16.1514 31.9301 14.8941 31.9301C14.0661 31.9301 13.2534 31.9147 12.4561 31.8841C11.6894 31.8534 10.9841 31.8381 10.3401 31.8381C9.72674 31.8381 9.22074 31.8534 8.82207 31.8841C8.45407 31.8841 8.27007 31.9301 8.27007 32.0221C7.77941 31.9301 7.41141 31.8994 7.16607 31.9301C6.92074 31.9607 6.70608 31.9454 6.52208 31.8841L1.87607 32.7581L0.726074 31.7921C0.756741 31.5161 0.802741 31.1941 0.864074 30.8261C1.01741 30.3354 1.10941 29.9214 1.14007 29.5841C1.20141 29.2161 1.23207 28.9094 1.23207 28.6641C1.23207 28.6027 1.21674 28.4801 1.18607 28.2961C1.15541 28.0814 1.09407 27.9127 1.00207 27.7901L1.18607 24.9841C1.67674 25.0761 2.10607 24.9841 2.47407 24.7081L2.79607 23.7881C2.55074 23.3587 2.38207 23.0367 2.29007 22.8221C2.19807 22.5767 1.93741 22.4541 1.50807 22.4541L1.23207 19.6021C1.38541 19.5714 1.49274 19.4947 1.55407 19.3721C1.61541 19.2494 1.64607 19.1267 1.64607 19.0041L1.69207 18.6361C1.75341 18.4827 1.81474 18.3907 1.87607 18.3601C2.02941 17.9307 2.15207 17.3481 2.24407 16.6121C2.33607 15.8454 2.42807 14.9407 2.52007 13.8981C2.64274 12.8247 2.71941 11.9047 2.75007 11.1381C2.81141 10.3714 2.84207 9.89605 2.84207 9.71206C2.84207 9.68139 2.79607 9.22139 2.70407 8.33205C2.61207 7.47339 2.19807 6.81405 1.46207 6.35405V3.87005C1.61541 3.62472 2.09074 3.50205 2.88807 3.50205C3.10274 3.47139 3.28674 3.45605 3.44007 3.45605C3.62407 3.45605 3.77741 3.45605 3.90007 3.45605H4.36007C4.54407 3.45605 4.91207 3.45605 5.46408 3.45605C6.04674 3.42539 6.55274 3.36405 6.98207 3.27205C7.07407 3.21072 7.25807 3.13405 7.53407 3.04205C7.81007 2.95005 7.97874 2.90405 8.04008 2.90405L13.3301 3.04205C13.3607 3.25672 13.4527 3.45605 13.6061 3.64005C13.7901 3.79339 13.9894 3.94672 14.2041 4.10005C14.4187 4.22272 14.6181 4.33005 14.8021 4.42206C15.0167 4.51405 15.1701 4.59072 15.2621 4.65205C15.5687 4.65205 15.8294 4.66739 16.0441 4.69805C16.2587 4.69805 16.4581 4.71339 16.6421 4.74405C16.9181 4.77472 17.3474 4.77472 17.9301 4.74405L18.5741 5.43405ZM8.04008 28.8021L14.1581 29.3081C14.5567 29.2161 14.8941 29.1241 15.1701 29.0321C15.4767 28.9401 15.7681 28.8174 16.0441 28.6641C16.3201 28.4801 16.6114 28.2347 16.9181 27.9281C17.2554 27.6214 17.6541 27.2074 18.1141 26.6861L18.9881 23.8801L17.8381 20.4761L11.4441 18.2221L8.96008 18.1761C8.53074 18.3294 8.22408 18.6361 8.04008 19.0961C7.85608 19.5254 7.76408 19.9701 7.76408 20.4301C7.79474 21.3501 7.85607 21.7641 7.94807 21.6721C7.97874 21.7947 7.91741 22.0861 7.76408 22.5461C7.64141 22.9754 7.56474 23.5887 7.53407 24.3861C7.50341 24.7847 7.48808 25.1374 7.48808 25.4441C7.48808 25.7507 7.48808 26.0114 7.48808 26.2261V26.9621L7.44207 27.9281L8.04008 28.8021ZM8.54607 7.13605L8.59207 8.83805L7.94807 9.89605L8.54607 11.5521V14.4501L9.23607 15.1861H10.3861C10.7234 15.1554 11.0301 15.1707 11.3061 15.2321C11.6127 15.2627 11.7967 15.2781 11.8581 15.2781C12.1954 15.2781 12.4254 15.2167 12.5481 15.0941C12.7014 14.9407 12.7934 14.8641 12.8241 14.8641C12.9161 14.8641 13.0847 14.9407 13.3301 15.0941L14.2501 14.4961C14.1887 14.2201 14.1887 13.9441 14.2501 13.6681C14.2807 13.4227 14.3267 13.1774 14.3881 12.9321C14.4494 12.6561 14.5721 12.3954 14.7561 12.1501C15.0627 11.6901 15.2621 11.3527 15.3541 11.1381C15.4767 10.8927 15.5841 10.6167 15.6761 10.3101C15.5841 9.85005 15.4461 9.48205 15.2621 9.20605C15.1087 8.89939 14.9401 8.65405 14.7561 8.47005C14.5721 8.25539 14.4034 8.07139 14.2501 7.91805C14.1274 7.76472 14.0507 7.59605 14.0201 7.41206C13.7747 7.13605 13.5907 6.82939 13.4681 6.49205C13.3454 6.15472 13.2381 5.98605 13.1461 5.98605L11.3521 5.61805L9.46608 6.03205L8.54607 7.13605Z" fill="#FB8500"/>
</svg>
